<svg width="51" height="51" viewBox="0 0 51 51" fill="none" xmlns="http://www.w3.org/2000/svg">
<circle cx="25.3672" cy="25.1855" r="25" fill="#1B6F78"/>
<path d="M25.3666 32.5135C27.31 32.5135 29.1738 31.7413 30.5479 30.3672C31.9221 28.9931 32.6942 27.1293 32.6942 25.186C32.6942 23.2426 31.9221 21.3788 30.5479 20.0045C29.1738 18.6303 27.31 17.8584 25.3666 17.8584C23.4233 17.8584 21.5595 18.6303 20.1852 20.0045C18.8109 21.3787 18.0391 23.2426 18.0391 25.186C18.0412 27.1285 18.814 28.991 20.1878 30.3648C21.5614 31.7384 23.4239 32.5111 25.3666 32.5135ZM25.3666 18.7201C27.0814 18.7201 28.7258 19.4013 29.9383 20.6139C31.1508 21.8264 31.8321 23.471 31.8321 25.1857C31.8321 26.9004 31.1508 28.5448 29.9383 29.7573C28.7257 30.9699 27.0814 31.6511 25.3666 31.6511C23.6519 31.6511 22.0073 30.9699 20.7948 29.7573C19.5822 28.5448 18.901 26.9004 18.901 25.1857C18.9034 23.4716 19.5852 21.8284 20.7974 20.6165C22.0093 19.4044 23.6526 18.7225 25.3666 18.7201Z" fill="white"/>
<path d="M25.3667 16.8493C25.481 16.8493 25.5907 16.804 25.6715 16.7231C25.7524 16.6423 25.7977 16.5325 25.7977 16.4183V13.1165C25.7977 12.8785 25.6048 12.6855 25.3667 12.6855C25.1287 12.6855 24.9355 12.8785 24.9355 13.1165V16.4183C24.9355 16.5325 24.9811 16.6423 25.062 16.7231C25.1428 16.804 25.2523 16.8493 25.3667 16.8493Z" fill="white"/>
<path d="M25.7977 37.2543V33.9527C25.7977 33.7146 25.6048 33.5215 25.3667 33.5215C25.1287 33.5215 24.9355 33.7146 24.9355 33.9527V37.2543C24.9355 37.4923 25.1287 37.6854 25.3667 37.6854C25.6048 37.6854 25.7977 37.4923 25.7977 37.2543Z" fill="white"/>
<path d="M13.2982 25.6171H16.6C16.838 25.6171 17.031 25.4241 17.031 25.1861C17.031 24.948 16.838 24.7549 16.6 24.7549H13.2982C13.0601 24.7549 12.8672 24.948 12.8672 25.1861C12.8672 25.4241 13.0601 25.6171 13.2982 25.6171Z" fill="white"/>
<path d="M37.4359 24.7539H34.1343C33.8963 24.7539 33.7031 24.947 33.7031 25.1851C33.7031 25.4232 33.8963 25.6161 34.1343 25.6161H37.4359C37.674 25.6161 37.8671 25.4232 37.8671 25.1851C37.8671 24.947 37.674 24.7539 37.4359 24.7539Z" fill="white"/>
<path d="M17.1334 34.0222L19.4697 31.6859H19.4695C19.6385 31.517 19.6385 31.243 19.4695 31.074C19.3006 30.905 19.0266 30.905 18.8576 31.074L16.5298 33.4188C16.4299 33.4937 16.3675 33.6083 16.3585 33.733C16.3497 33.8577 16.3953 33.9801 16.4836 34.0684C16.572 34.1567 16.6945 34.2023 16.819 34.1935C16.9437 34.1848 17.0584 34.1221 17.1334 34.0222Z" fill="white"/>
<path d="M31.5665 19.4182C31.6801 19.4165 31.7885 19.3701 31.8681 19.2888L34.2044 16.9525V16.9528C34.3733 16.7836 34.3733 16.5096 34.2044 16.3406C34.0354 16.1716 33.7614 16.1716 33.5922 16.3406L31.2561 18.6854C31.1342 18.8097 31.0991 18.9949 31.1669 19.1551C31.2349 19.3155 31.3924 19.4193 31.5665 19.4182Z" fill="white"/>
<path d="M31.8676 31.0828C31.6986 30.9138 31.4246 30.9138 31.2556 31.0828C31.0867 31.2518 31.0867 31.5257 31.2556 31.6949L33.5919 34.0312L33.5917 34.031C33.7609 34.2002 34.0349 34.2002 34.2039 34.031C34.3729 33.8621 34.3729 33.5881 34.2039 33.4191L31.8676 31.0828Z" fill="white"/>
<path d="M18.8681 19.2891C19.037 19.458 19.311 19.458 19.48 19.2891C19.6492 19.1201 19.6492 18.8461 19.48 18.6771L17.1354 16.3494C16.9662 16.1804 16.6922 16.1804 16.5232 16.3494C16.3542 16.5184 16.3542 16.7926 16.5232 16.9615L18.8681 19.2891Z" fill="white"/>
</svg>

