<svg width="51" height="51" viewBox="0 0 51 51" fill="none" xmlns="http://www.w3.org/2000/svg">
<circle cx="25.6543" cy="25.1855" r="25" fill="#1B6F78"/>
<path fill-rule="evenodd" clip-rule="evenodd" d="M22.8152 13.9141C16.8927 16.0788 13.8682 22.695 16.0601 28.692C18.252 34.6887 24.8298 37.7948 30.7526 35.63C33.8681 34.4912 36.182 32.121 37.3559 29.2557C32.0753 30.5303 26.5434 27.6146 24.6109 22.3274C23.4825 19.2401 23.8136 15.9796 25.2504 13.3183C24.4356 13.4237 23.6198 13.6204 22.8155 13.9144L22.8152 13.9141ZM14.9314 29.1045C12.5089 22.4768 15.8514 15.1639 22.3975 12.7713C23.7061 12.293 25.045 12.0473 26.3689 12.014C26.5967 12.0081 26.8092 12.1328 26.9178 12.3361C27.0263 12.5392 27.0124 12.7859 26.8819 12.9734C25.1333 15.4849 24.6007 18.799 25.7397 21.9151C27.5855 26.9649 33.1247 29.5804 38.1117 27.7576C38.3257 27.6794 38.5667 27.7302 38.733 27.889C38.8994 28.0476 38.9633 28.287 38.8982 28.507C37.8018 32.2108 35.0479 35.3556 31.1704 36.7729C24.6246 39.1655 17.3539 35.7322 14.9315 29.1047L14.9314 29.1045Z" fill="white"/>
</svg>
